<?xml version="1.0" encoding="UTF-8" standalone="no"?>
<!-- Created with Inkscape (http://www.inkscape.org/) -->

<svg
   width="42.788086mm"
   height="49.864151mm"
   viewBox="0 0 42.788086 49.864151"
   version="1.1"
   id="svg5"
   inkscape:version="1.2.1 (9c6d41e410, 2022-07-14)"
   sodipodi:docname="IOHIVE_Icons.html"
   inkscape:dataloss="true"
   xmlns:inkscape="http://www.inkscape.org/namespaces/inkscape"
   xmlns:sodipodi="http://sodipodi.sourceforge.net/DTD/sodipodi-0.dtd"
   xmlns="http://www.w3.org/2000/svg"
   xmlns:svg="http://www.w3.org/2000/svg">
  <sodipodi:namedview
     id="namedview7"
     pagecolor="#ffffff"
     bordercolor="#666666"
     borderopacity="1.0"
     inkscape:showpageshadow="2"
     inkscape:pageopacity="0.0"
     inkscape:pagecheckerboard="0"
     inkscape:deskcolor="#d1d1d1"
     inkscape:document-units="mm"
     showgrid="false"
     inkscape:zoom="0.5946522"
     inkscape:cx="-1007.3115"
     inkscape:cy="1058.602"
     inkscape:window-width="1207"
     inkscape:window-height="749"
     inkscape:window-x="735"
     inkscape:window-y="64"
     inkscape:window-maximized="0"
     inkscape:current-layer="layer1" />
  <defs
     id="defs2" />
  <g
     inkscape:label="Layer 1"
     inkscape:groupmode="layer"
     id="layer1"
     transform="translate(241.5339,-53.359694)">
    <path
       id="path3292"
       style="fill:#ffffff;fill-opacity:1;stroke:none;stroke-width:2;stroke-linecap:round;stroke-linejoin:round;stroke-miterlimit:10;stroke-opacity:1;paint-order:markers stroke fill"
       d="m -220.13986,53.359695 c -10.71448,10e-7 -21.39404,8.547526 -21.39404,21.394043 0,12.531898 19.18267,28.470102 21.39404,28.470102 2.21137,0 21.39404,-15.033885 21.39404,-28.470102 0,-12.499088 -10.67956,-21.394044 -21.39404,-21.394043 z m 0,17.392737 a 4.0011106,4.0011106 0 0 1 0.24133,0.0072 4.0011106,4.0011106 0 0 1 0.24081,0.02222 4.0011106,4.0011106 0 0 1 0.23926,0.03617 4.0011106,4.0011106 0 0 1 0.23616,0.05064 4.0011106,4.0011106 0 0 1 0.23255,0.06511 4.0011106,4.0011106 0 0 1 0.22892,0.07855 4.0011106,4.0011106 0 0 1 0.22325,0.0925 4.0011106,4.0011106 0 0 1 0.21704,0.105937 4.0011106,4.0011106 0 0 1 0.21032,0.118855 4.0011106,4.0011106 0 0 1 0.20309,0.131258 4.0011106,4.0011106 0 0 1 0.19482,0.143144 4.0011106,4.0011106 0 0 1 0.18552,0.154513 4.0011106,4.0011106 0 0 1 0.17621,0.165881 4.0011106,4.0011106 0 0 1 0.16537,0.176217 4.0011106,4.0011106 0 0 1 0.15503,0.185518 4.0011106,4.0011106 0 0 1 0.14314,0.19482 4.0011106,4.0011106 0 0 1 0.13126,0.202572 4.0011106,4.0011106 0 0 1 0.11885,0.21084 4.0011106,4.0011106 0 0 1 0.10542,0.217041 4.0011106,4.0011106 0 0 1 0.0925,0.223242 4.0011106,4.0011106 0 0 1 0.0791,0.22841 4.0011106,4.0011106 0 0 1 0.0651,0.23306 4.0011106,4.0011106 0 0 1 0.0506,0.236162 4.0011106,4.0011106 0 0 1 0.0362,0.239262 4.0011106,4.0011106 0 0 1 0.0217,0.240295 4.0011106,4.0011106 0 0 1 0.008,0.241846 4.0011106,4.0011106 0 0 1 -0.061,0.694531 4.0011106,4.0011106 0 0 1 -0.18035,0.673861 4.0011106,4.0011106 0 0 1 -0.29508,0.632002 4.0011106,4.0011106 0 0 1 -0.39997,0.571542 4.0011106,4.0011106 0 0 1 -0.493,0.492993 4.0011106,4.0011106 0 0 1 -0.57154,0.399975 4.0011106,4.0011106 0 0 1 -0.632,0.295073 4.0011106,4.0011106 0 0 1 -0.67386,0.180351 4.0011106,4.0011106 0 0 1 -0.69453,0.06098 4.0011106,4.0011106 0 0 1 -0.69505,-0.06098 4.0011106,4.0011106 0 0 1 -0.67334,-0.180351 4.0011106,4.0011106 0 0 1 -0.63201,-0.295073 4.0011106,4.0011106 0 0 1 -0.57154,-0.399975 4.0011106,4.0011106 0 0 1 -0.49299,-0.492993 4.0011106,4.0011106 0 0 1 -0.39998,-0.571542 4.0011106,4.0011106 0 0 1 -0.29507,-0.632002 4.0011106,4.0011106 0 0 1 -0.18035,-0.673861 4.0011106,4.0011106 0 0 1 -0.061,-0.694531 4.0011106,4.0011106 0 0 1 0.061,-0.695048 4.0011106,4.0011106 0 0 1 0.18035,-0.673344 4.0011106,4.0011106 0 0 1 0.29507,-0.632003 4.0011106,4.0011106 0 0 1 0.39998,-0.571541 4.0011106,4.0011106 0 0 1 0.49299,-0.492993 4.0011106,4.0011106 0 0 1 0.57154,-0.399976 4.0011106,4.0011106 0 0 1 0.63201,-0.295073 4.0011106,4.0011106 0 0 1 0.67334,-0.18035 4.0011106,4.0011106 0 0 1 0.69505,-0.06098 z" />
  </g>
</svg>
